<?xml version="1.0" encoding="UTF-8" standalone="no"?>
<!-- Created with Inkscape (http://www.inkscape.org/) -->

<svg
   width="512"
   height="512"
   viewBox="0 0 135.46666 135.46666"
   version="1.1"
   id="svg5"
   xml:space="preserve"
   inkscape:version="1.2.1 (9c6d41e410, 2022-07-14)"
   sodipodi:docname="logo-dark.svg"
   xmlns:inkscape="http://www.inkscape.org/namespaces/inkscape"
   xmlns:sodipodi="http://sodipodi.sourceforge.net/DTD/sodipodi-0.dtd"
   xmlns="http://www.w3.org/2000/svg"
   xmlns:svg="http://www.w3.org/2000/svg"><sodipodi:namedview
     id="namedview7"
     pagecolor="#505050"
     bordercolor="#eeeeee"
     borderopacity="1"
     inkscape:showpageshadow="0"
     inkscape:pageopacity="0"
     inkscape:pagecheckerboard="0"
     inkscape:deskcolor="#505050"
     inkscape:document-units="px"
     showgrid="false"
     inkscape:zoom="0.47121032"
     inkscape:cx="162.34789"
     inkscape:cy="263.15213"
     inkscape:window-width="1366"
     inkscape:window-height="697"
     inkscape:window-x="-8"
     inkscape:window-y="-8"
     inkscape:window-maximized="1"
     inkscape:current-layer="layer1-4" /><defs
     id="defs2" /><g
     inkscape:label="Layer 1"
     inkscape:groupmode="layer"
     id="layer1"><g
       inkscape:label="Layer 1"
       id="layer1-4"
       transform="translate(45.43688,94.838357)"><path
         style="fill:#252933;fill-opacity:1;stroke:#252933;stroke-width:1.70304;stroke-dasharray:none;stroke-opacity:1"
         d="m -4.6640568,37.931803 c -0.9686428,-0.258892 -1.5382479,-0.628832 -2.35495,-1.529451 -0.6922923,-0.763421 -1.1331764,-1.524799 -1.2337047,-2.130518 -0.086028,-0.518407 -0.2013582,-1.086202 -0.2562741,-1.261761 -0.074155,-0.237132 -1.106473,-0.319199 -4.0149804,-0.319199 -2.691161,0 -4.384765,-0.12224 -5.417336,-0.391 -0.826219,-0.21506 -2.176364,-0.750089 -3.000345,-1.188958 -0.855794,-0.455823 -2.144571,-1.48852 -3.005815,-2.408562 -0.829227,-0.885836 -1.850917,-2.333045 -2.270429,-3.21601 -0.419504,-0.882965 -0.887355,-2.287237 -1.039675,-3.120609 -0.192989,-1.055849 -0.275611,-16.8878248 -0.272516,-52.221134 0.0039,-43.05796 0.05975,-50.96666 0.37102,-52.434654 0.201621,-0.950806 0.743442,-2.43532 1.204052,-3.298919 0.46061,-0.8636 1.372994,-2.1196 2.027518,-2.791112 0.654523,-0.671512 1.749318,-1.575545 2.432891,-2.008963 0.683573,-0.433418 1.95164,-1.006936 2.817925,-1.274484 0.866285,-0.267548 2.533663,-0.556561 3.70527,-0.642248 1.171606,-0.08569 2.475175,-0.05791 2.89681,0.06171 0.499362,0.141686 0.922914,0.524552 1.214991,1.09829 0.423045,0.830992 0.444718,3.330675 0.383311,44.221082 -0.0651,43.3403023 -0.0651,43.3403023 -0.634369,43.9091629 -0.374514,0.3742482 -0.879141,0.5688634 -1.475012,0.5688634 -0.595871,0 -1.100488,-0.1946152 -1.475002,-0.5688654 -0.569284,-0.5688684 -0.569284,-0.5688684 -0.63541,-42.8591859 -0.06618,-42.290323 -0.06618,-42.290323 -1.311053,-42.142983 -0.684701,0.08103 -1.804847,0.41019 -2.489218,0.731451 -0.68438,0.321261 -1.710304,1.049498 -2.279851,1.618303 -0.569536,0.568807 -1.292124,1.563875 -1.605737,2.211266 -0.313613,0.647389 -0.680643,1.850968 -0.815622,2.67462 -0.150208,0.916593 -0.245987,18.908018 -0.246892,46.377081 -8.18e-4,24.6837439 0.04447,44.879531 0.100606,44.879531 0.05615,0 0.686969,-0.393325 1.401829,-0.8740607 0.71486,-0.4807354 1.962569,-1.141478 2.772692,-1.4683166 1.472949,-0.594265 1.472949,-0.594265 43.566713,-0.7219447 42.093774,-0.1276796 42.093774,-0.1276796 42.80226,-0.8356983 0.708485,-0.7080188 0.708485,-0.7080188 0.781872,-46.2201717 0.04039,-25.031684 0.0039,-45.898456 -0.08087,-46.370604 -0.08476,-0.472148 -0.428837,-1.132892 -0.764492,-1.46832 -0.610245,-0.60987 -0.610245,-0.60987 -32.959832,-0.60987 -27.8919317,0 -32.4492099,-0.05148 -33.0725436,-0.373595 -0.39762676,-0.205478 -0.79437769,-0.559612 -0.88169029,-0.786965 -0.087293,-0.227354 -0.1587335,-0.748708 -0.1587335,-1.158566 0,-0.409857 0.2235757,-0.96861 0.49682182,-1.241672 0.27325587,-0.273062 0.87695097,-0.565083 1.34156097,-0.648934 0.4646099,-0.08385 15.3336246,-0.118989 33.0422676,-0.07809 32.197521,0.07437 32.197521,0.07437 33.410633,0.671383 0.667214,0.328356 1.618476,1.070264 2.113926,1.648687 0.49545,0.578422 1.070709,1.623385 1.278363,2.32214 0.326975,1.100283 0.377356,7.446912 0.37612,47.380448 -9.73e-4,30.065305 -0.0907,46.4310474 -0.257899,47.0326697 -0.141071,0.5074876 -0.577848,1.4008754 -0.970628,1.9853115 -0.392781,0.5844366 -1.124379,1.3411721 -1.625765,1.6816348 -0.501376,0.340473 -1.213872,0.694842 -1.583306,0.787498 -0.67169,0.168475 -0.67169,0.168475 -0.67169,4.49011 0,3.199777 -0.09634,4.551944 -0.370943,5.208823 -0.218301,0.522105 -0.645765,0.9916 -1.038779,1.140923 -0.426209,0.161926 -9.907572,0.253734 -26.20479,0.253734 -25.536954,0 -25.536954,0 -25.536954,3.192002 0,3.192001 0,3.192001 27.818946,3.192001 27.75675,0 27.820453,9.73e-4 28.492251,0.529257 0.513706,0.403797 0.673306,0.756425 0.673306,1.487644 0,0.671622 -0.176971,1.124534 -0.591424,1.513626 -0.591433,0.555232 -0.591433,0.555232 -28.492251,0.555232 -27.900828,0 -27.900828,0 -27.900828,0.588261 0,0.323549 -0.304357,1.198622 -0.67636,1.944604 -0.471675,0.94588 -1.012397,1.569311 -1.786786,2.06007 -0.61073,0.387049 -1.5606203,0.775664 -2.1108593,0.86359 C 8.5855493,38.259681 7.4415804,38.087438 5.4440166,37.568635 2.6001956,36.83002 2.6001956,36.83002 0.50128602,37.40415 c -1.15440121,0.315773 -2.50138262,0.64051 -2.99328992,0.721633 -0.4919073,0.08116 -1.4693281,-0.0058 -2.1720529,-0.193991 z m 4.62695701,-4.663461 c 2.66072929,-0.699329 2.66072929,-0.699329 5.40718479,0 1.5105418,0.384635 3.0002774,0.699338 3.3105136,0.699338 0.3102363,0 0.6831056,-0.222272 0.8285943,-0.493941 0.1582858,-0.295561 0.2645265,-2.650852 0.2645265,-5.864789 0,-5.370856 0,-5.370856 -10.11644259,-5.443192 -10.11644281,-0.07231 -10.11644281,-0.07231 -10.60473981,-0.675174 -0.268565,-0.331568 -0.488297,-0.942416 -0.488297,-1.357433 0,-0.415017 0.112566,-0.964759 0.250143,-1.221647 0.137577,-0.256887 0.614702,-0.59407 1.060277,-0.749291 0.5766504,-0.200891 11.1829765,-0.282218 36.802551,-0.282218 35.992428,0 35.992428,0 35.992428,-3.195923 0,-3.195914 0,-3.195914 -39.799715,-3.128162 -39.799705,0.06773 -39.799705,0.06773 -41.005129,0.624258 -0.662981,0.306071 -1.769249,1.083535 -2.458369,1.727685 -0.779566,0.728689 -1.512196,1.748443 -1.939096,2.699053 -0.54765,1.219496 -0.686132,1.914504 -0.686132,3.443642 0,1.529149 0.138482,2.224156 0.686132,3.443653 0.4269,0.9506 1.15953,1.970364 1.939096,2.699043 0.68912,0.644159 1.795388,1.421234 2.458369,1.726838 1.086153,0.500676 1.761658,0.569021 6.827212,0.690735 3.0919894,0.07435 5.8074496,0.224647 6.0343633,0.334099 0.2269232,0.109462 0.5431445,0.485377 0.7027246,0.835377 0.1595801,0.35001 0.2901501,1.297457 0.2901501,2.105449 0,0.807983 0.1379855,1.606964 0.3066453,1.775497 0.16865,0.168543 0.5248101,0.306441 0.7914581,0.306441 0.2666481,0 1.6821503,-0.314703 3.14555181,-0.699338 z M 27.666261,1.7258411 C 27.317673,1.5461903 26.888145,1.1141875 26.711768,0.76583514 c -0.176377,-0.3483524 -0.322381,-1.1253493 -0.324454,-1.7266611 -0.0029,-0.81565014 -0.117335,-1.12877284 -0.450956,-1.23299534 -0.245949,-0.076832 -1.016377,-0.3892351 -1.712066,-0.6942249 -0.695679,-0.304989 -1.850246,-1.1290873 -2.565709,-1.8313274 -0.715473,-0.70224 -1.668945,-1.9340947 -2.11884,-2.7374547 -0.45917,-0.8199358 -1.127172,-1.6175128 -1.522853,-1.8182478 -0.387671,-0.196676 -1.412037,-0.479636 -2.276357,-0.628799 -0.864329,-0.1491629 -2.162107,-0.5702819 -2.883953,-0.9358199 -0.721858,-0.365538 -1.765999,-1.074075 -2.320325,-1.57453 -0.5543165,-0.500452 -1.4126216,-1.718441 -1.9073414,-2.706641 -0.4947099,-0.988202 -0.8994798,-2.006686 -0.8994798,-2.263297 0,-0.335817 -0.3043583,-0.543118 -1.0860263,-0.73972 -0.5973209,-0.150233 -1.6552228,-0.528127 -2.3509017,-0.839764 -0.6956888,-0.311637 -1.8530581,-1.14117 -2.5719471,-1.84341 -0.7188794,-0.70224 -1.64457629,-1.966273 -2.05709259,-2.808961 -0.75002061,-1.53216 -0.75002061,-1.53216 -0.75002061,-16.220735 0,-14.688571 0,-14.688571 0.83829671,-16.39024 0.5343569,-1.084683 1.30408419,-2.12015 2.12294679,-2.855869 0.7065493,-0.634808 1.8816887,-1.43215 2.6114286,-1.771865 0.72973,-0.339719 1.7580087,-0.694866 2.285057,-0.789216 0.7790795,-0.139473 0.9582592,-0.281123 0.9582592,-0.757589 0,-0.322323 0.351596,-1.289176 0.7813373,-2.148559 0.4623424,-0.924599 1.2989653,-2.027599 2.0492289,-2.701682 0.697344,-0.626541 1.768354,-1.381266 2.380029,-1.677169 0.611675,-0.295902 1.960592,-0.714264 2.9976,-0.929691 1.341415,-0.278665 2.094988,-0.589834 2.611594,-1.078383 0.399369,-0.377683 0.950552,-1.122795 1.224859,-1.655803 0.274307,-0.533009 0.902302,-1.415491 1.395533,-1.96107 0.49324,-0.545579 1.436931,-1.331644 2.097109,-1.746811 0.660168,-0.415167 1.617639,-0.887236 2.127725,-1.049043 0.898526,-0.285033 0.931127,-0.338976 1.046749,-1.73231 0.09654,-1.16386 0.251379,-1.551612 0.8117,-2.033249 0.380801,-0.327323 0.967018,-0.595132 1.302703,-0.595132 0.335684,0 0.921902,0.267809 1.302702,0.595132 0.558735,0.480274 0.715172,0.870029 0.810562,2.019487 0.118201,1.424354 0.118201,1.424354 1.6009,1.964603 0.883491,0.321913 2.016647,1.01998 2.803891,1.72729 0.726646,0.652872 1.653403,1.775304 2.059458,2.494294 0.406054,0.718989 1.060247,1.615513 1.453777,1.992274 0.529744,0.507178 1.221988,0.781861 2.666432,1.058038 1.073015,0.20516 2.43728,0.620963 3.031701,0.924006 0.594421,0.303042 1.642348,1.075915 2.328713,1.717495 0.758069,0.708592 1.556525,1.812623 2.034019,2.812434 0.59012,1.235631 0.819768,2.137223 0.92125,3.616817 0.13165,1.919394 0.116712,1.985414 -0.571561,2.526436 -0.388703,0.305548 -1.023462,0.55554 -1.410569,0.55554 -0.387116,0 -0.962823,-0.209566 -1.279356,-0.465702 -0.423503,-0.342699 -0.632676,-0.883426 -0.791954,-2.047245 -0.119038,-0.86985 -0.436563,-2.0105 -0.705605,-2.53478 -0.269042,-0.524277 -0.759091,-1.198343 -1.088995,-1.497924 -0.329904,-0.299578 -0.949676,-0.72112 -1.377276,-0.936753 -0.42761,-0.215637 -1.515145,-0.525739 -2.416747,-0.689118 -0.901601,-0.16338 -1.973536,-0.469787 -2.382072,-0.680906 -0.408536,-0.211118 -1.256808,-0.857317 -1.885027,-1.435996 -0.628219,-0.578679 -1.375164,-1.516957 -1.659874,-2.085062 -0.28471,-0.568105 -0.821217,-1.35945 -1.192257,-1.758545 -0.37104,-0.399095 -1.134578,-0.968462 -1.696748,-1.265261 -0.711016,-0.375372 -1.48885,-0.539889 -2.555364,-0.54047 -0.987211,-5.37e-4 -1.851715,0.164876 -2.427588,0.464493 -0.491907,0.255931 -1.221131,0.768219 -1.6205,1.138417 -0.399369,0.370199 -0.957607,1.132736 -1.240526,1.694528 -0.28291,0.561792 -0.991075,1.519299 -1.573691,2.127794 -0.582616,0.608494 -1.468024,1.317561 -1.967571,1.575703 -0.499556,0.258144 -1.644576,0.602781 -2.544514,0.765856 -0.899927,0.163076 -1.98609,0.47293 -2.41369,0.688567 -0.42761,0.215633 -1.047382,0.637175 -1.377285,0.936753 -0.329904,0.299581 -0.819953,0.973647 -1.088995,1.497924 -0.269042,0.52428 -0.584679,1.651166 -0.701421,2.504191 -0.116741,0.853026 -0.399903,1.738475 -0.62925,1.967666 -0.254989,0.254816 -1.1045261,0.490123 -2.1866502,0.605669 -0.973314,0.103925 -2.230073,0.423682 -2.7928075,0.710569 -0.5627248,0.286884 -1.3629706,0.933602 -1.7783285,1.437149 -0.4153481,0.503547 -0.8864394,1.353327 -1.0468564,1.888398 -0.2019908,0.673706 -0.291678,4.972655 -0.291678,13.9803 0,13.007436 0,13.007436 0.6733643,14.357763 0.399904,0.801968 1.0796716,1.64446 1.6739172,2.074632 0.5503072,0.398369 1.5753548,0.847492 2.2778849,0.998055 0.7025204,0.15056 1.6563029,0.273745 2.1195018,0.273745 0.5195744,0 1.0205814,0.196983 1.3078794,0.514216 0.267943,0.295871 0.557187,1.182892 0.681188,2.088965 0.118532,0.866113 0.494477,2.050452 0.835446,2.631866 0.340969,0.581417 1.058427,1.360673 1.59435,1.731686 0.547407,0.378959 1.760899,0.839824 2.769121,1.051671 0.987094,0.207405 2.079504,0.48764 2.427597,0.622746 0.348083,0.135105 1.107397,0.592254 1.687357,1.015889 0.616745,0.450504 1.525966,1.547584 2.19029,2.6428439 0.672926,1.10944 1.544953,2.1583641 2.139724,2.5737892 0.552156,0.3856518 1.521373,0.7936895 2.153816,0.9067503 0.632452,0.1130578 1.667378,0.1148202 2.29983,0.00389 0.632452,-0.1109062 1.609873,-0.5238205 2.172053,-0.9175885 0.603422,-0.4226616 1.460054,-1.443753 2.091143,-2.492626 0.587949,-0.9771729 1.441816,-2.0891639 1.897473,-2.4710909 0.455667,-0.381924 1.196345,-0.868848 1.645939,-1.082047 0.449594,-0.213201 1.665567,-0.56562 2.702167,-0.783154 1.036589,-0.217534 2.309571,-0.676063 2.828844,-1.018953 0.519273,-0.342893 1.236731,-1.122379 1.594351,-1.732195 0.373628,-0.637108 0.744727,-1.799262 0.872377,-2.732016 0.164719,-1.203659 0.370913,-1.743645 0.797657,-2.088964 0.316533,-0.256136 0.902088,-0.465702 1.301233,-0.465702 0.399145,0 1.300513,-0.123187 2.003043,-0.273747 0.70252,-0.150562 1.751568,-0.617059 2.331206,-1.036662 0.676245,-0.489528 1.27519,-1.237866 1.671425,-2.088332 0.617533,-1.325421 0.617533,-1.325421 0.620034,-14.042267 0.0019,-10.658006 0.06306,-12.833808 0.376343,-13.439298 0.205621,-0.39735 0.56,-0.793835 0.787517,-0.881079 0.227507,-0.08724 0.729176,-0.158624 1.114813,-0.158624 0.405578,0 0.939,0.252982 1.265323,0.600098 0.564146,0.600099 0.564146,0.600099 0.491722,14.364003 -0.0724,13.763914 -0.0724,13.763914 -0.739384,15.168394 -0.366826,0.772464 -1.147968,1.944841 -1.735869,2.605279 -0.673403,0.756491 -1.739392,1.535995 -2.880984,2.106719 -0.996641,0.498259 -2.055362,0.907683 -2.352704,0.909832 -0.297341,0.002 -0.661219,0.08834 -0.808595,0.191521 -0.147396,0.103186 -0.416399,0.704715 -0.597808,1.336731 -0.181398,0.632016 -0.679378,1.699429 -1.106609,2.372029 -0.42724,0.672599 -1.250647,1.606767 -1.829789,2.075929 -0.579152,0.469161 -1.515797,1.085823 -2.081432,1.370357 -0.565634,0.284535 -1.773044,0.659812 -2.683132,0.8339499 -0.910077,0.174137 -1.96612,0.472769 -2.346756,0.663625 -0.397636,0.199377 -1.125975,1.089457 -1.711968,2.0921215 -0.560944,0.9598094 -1.48049,2.1609363 -2.043429,2.6691694 -0.562949,0.5082351 -1.517432,1.1761964 -2.121078,1.4843569 -0.603646,0.3081633 -1.385013,0.6371457 -1.736375,0.7310749 -0.56108,0.1499935 -0.658387,0.3504817 -0.799448,1.64704714 -0.102056,0.9381468 -0.334925,1.64718547 -0.638836,1.94516456 -0.263028,0.2578964 -0.765718,0.534683 -1.11708,0.6150861 C 28.58754,1.9866796 28.01485,1.9055105 27.666261,1.7258238 Z M 24.432608,-21.060673 c -0.862197,-0.187383 -2.274148,-0.625875 -3.137669,-0.974426 -0.863521,-0.348552 -2.211184,-1.019216 -2.994798,-1.490366 -0.783615,-0.471147 -2.164424,-1.531419 -3.068448,-2.356156 -0.904025,-0.82474 -2.159109,-2.221342 -2.78908,-3.103563 -0.62998,-0.88222 -1.479322,-2.339956 -1.88743,-3.239411 -0.408117,-0.899454 -0.9459095,-2.375653 -1.1951087,-3.28044 -0.3200361,-1.161993 -0.4544501,-2.582398 -0.4577491,-4.837068 -0.00389,-2.541614 0.111058,-3.597401 0.56326,-5.181637 0.3123578,-1.094295 0.9564298,-2.760576 1.4312778,-3.702842 0.474838,-0.942264 1.399425,-2.425859 2.05463,-3.296878 0.655204,-0.871018 1.539463,-1.876441 1.96502,-2.234278 0.481747,-0.405081 1.087048,-0.650609 1.603966,-0.650609 0.537422,0 1.026176,0.208438 1.38584,0.591019 0.336989,0.358461 0.555621,0.920121 0.555621,1.427396 0,0.636311 -0.290355,1.162312 -1.213804,2.198931 -0.667583,0.749403 -1.588853,1.982189 -2.047263,2.739529 -0.458411,0.757337 -1.057231,2.013162 -1.330701,2.790717 -0.27348,0.777559 -0.624491,2.206163 -0.780032,3.174677 -0.155532,0.968515 -0.210263,2.450407 -0.121607,3.293095 0.08866,0.842688 0.336327,2.164176 0.550385,2.936641 0.214067,0.772464 0.806337,2.200544 1.31617,3.17351 0.509823,0.972968 1.54468,2.43579 2.299684,3.250721 0.754993,0.814931 2.079621,1.94326 2.9436,2.507396 0.863979,0.564139 2.492352,1.34098 3.618609,1.726316 1.746146,0.59743 2.461707,0.700614 4.85862,0.700614 2.396913,0 3.112474,-0.103184 4.858619,-0.700614 1.126257,-0.385336 2.75463,-1.162177 3.618609,-1.726316 0.863979,-0.564136 2.217646,-1.723813 3.00814,-2.577058 0.790505,-0.853244 1.822735,-2.316259 2.293865,-3.251145 0.47112,-0.934886 1.034672,-2.299037 1.252321,-3.031448 0.217649,-0.732412 0.467861,-2.111164 0.55601,-3.063898 0.102047,-1.102874 0.02326,-2.494246 -0.216861,-3.829558 -0.219381,-1.219959 -0.753748,-2.875715 -1.277419,-3.95808 -0.495148,-1.02342 -1.454857,-2.545206 -2.132698,-3.381751 -0.691183,-0.853017 -2.083991,-2.099798 -3.171468,-2.838951 -1.066475,-0.724878 -2.69731,-1.570119 -3.624078,-1.878316 -0.926766,-0.308196 -2.587799,-0.651303 -3.691187,-0.762461 -1.103387,-0.111157 -2.248018,-0.331451 -2.543618,-0.489544 -0.2956,-0.158093 -0.66373,-0.649399 -0.818055,-1.091787 -0.211245,-0.605574 -0.202098,-0.967916 0.03698,-1.466239 0.174683,-0.364038 0.605077,-0.812042 0.956439,-0.995562 0.449331,-0.234688 1.169456,-0.284931 2.427587,-0.169367 0.983815,0.09037 2.609288,0.372734 3.612166,0.627483 1.002879,0.254748 2.612811,0.860438 3.577629,1.345978 0.964818,0.485538 2.483311,1.4305 3.374451,2.099914 0.89113,0.669417 2.177931,1.886793 2.859547,2.705282 0.681627,0.818493 1.640451,2.172114 2.130713,3.008051 0.490263,0.835933 1.174089,2.303258 1.519602,3.260715 0.345514,0.957458 0.772803,2.637016 0.94953,3.732352 0.189603,1.175127 0.25969,2.864372 0.170957,4.120755 -0.08272,1.17108 -0.338235,2.853767 -0.567863,3.739307 -0.229619,0.885544 -0.751413,2.345994 -1.159521,3.245448 -0.408117,0.899455 -1.257459,2.357191 -1.88743,3.239411 -0.629971,0.882221 -1.885066,2.278823 -2.78909,3.103563 -0.904025,0.824737 -2.284824,1.885009 -3.068438,2.356156 -0.783625,0.47115 -2.12539,1.139438 -2.98172,1.485083 -0.856319,0.345648 -2.325764,0.791279 -3.265435,0.990294 -0.939672,0.199012 -2.800905,0.354702 -4.136082,0.345977 -1.335167,-0.0088 -3.133017,-0.169182 -3.995215,-0.356562 z"
         id="path1343" /></g></g></svg>
