<?xml version="1.0" encoding="UTF-8" standalone="no"?>
<!-- Created with Inkscape (http://www.inkscape.org/) -->

<svg
   width="512"
   height="512"
   viewBox="0 0 135.46666 135.46667"
   version="1.1"
   id="svg5"
   xml:space="preserve"
   inkscape:version="1.2.1 (9c6d41e410, 2022-07-14)"
   sodipodi:docname="quran.svg"
   xmlns:inkscape="http://www.inkscape.org/namespaces/inkscape"
   xmlns:sodipodi="http://sodipodi.sourceforge.net/DTD/sodipodi-0.dtd"
   xmlns="http://www.w3.org/2000/svg"
   xmlns:svg="http://www.w3.org/2000/svg"><sodipodi:namedview
     id="namedview7"
     pagecolor="#505050"
     bordercolor="#eeeeee"
     borderopacity="1"
     inkscape:showpageshadow="0"
     inkscape:pageopacity="0"
     inkscape:pagecheckerboard="0"
     inkscape:deskcolor="#505050"
     inkscape:document-units="mm"
     showgrid="false"
     inkscape:zoom="0.16283643"
     inkscape:cx="-162.73999"
     inkscape:cy="583.40753"
     inkscape:window-width="1366"
     inkscape:window-height="697"
     inkscape:window-x="-8"
     inkscape:window-y="-8"
     inkscape:window-maximized="1"
     inkscape:current-layer="layer1" /><defs
     id="defs2" /><g
     inkscape:label="Layer 1"
     inkscape:groupmode="layer"
     id="layer1"><rect
       style="fill:#ffffff;fill-opacity:1;stroke:none;stroke-width:2.64583;stroke-linecap:round"
       id="rect1397"
       width="83.872345"
       height="101.10638"
       x="32.170212"
       y="3.4468086" /><path
       style="fill:#ffffff;fill-opacity:1;stroke:none;stroke-width:2.64583;stroke-linecap:round"
       d="m 30.446808,4.0212766 -8.042553,1.7234043 -3.446808,5.4574461 -0.861702,107.425533 6.893616,6.89361 8.042553,1.72341 5.744681,0.8617 0.287234,4.30851 8.617021,-0.57447 7.180853,1.14894 2.297872,-4.02128 0.287234,-2.01063 h 53.712761 v -21.25532 l 5.17022,-2.58511 -0.86171,-28.148937"
       id="path1886" /><path
       style="fill:#6dbafb;stroke-width:1.75;fill-opacity:1;stroke:#6dbafb;stroke-opacity:1;stroke-dasharray:none"
       d="m 40.02948,134.56802 c -0.99535,-0.26603 -1.58066,-0.64617 -2.41988,-1.57162 -0.71138,-0.78447 -1.16442,-1.56684 -1.26772,-2.18926 -0.0884,-0.5327 -0.20691,-1.11615 -0.26334,-1.29655 -0.0762,-0.24367 -1.13698,-0.328 -4.12568,-0.328 -2.76536,0 -4.50566,-0.12561 -5.5667,-0.40178 -0.849,-0.22099 -2.23637,-0.77077 -3.08307,-1.22174 -0.87939,-0.46839 -2.2037,-1.52956 -3.08869,-2.47497 -0.85209,-0.91026 -1.90195,-2.39737 -2.33303,-3.30468 -0.43107,-0.90731 -0.91182,-2.3503 -1.06834,-3.20665 -0.19831,-1.08496 -0.28321,-17.35345 -0.28003,-53.660959 0.004,-44.24514 0.0614,-52.371897 0.38125,-53.880366 0.20718,-0.977021 0.76394,-2.5024652 1.23725,-3.3898752 0.47331,-0.887411 1.41085,-2.178041 2.08342,-2.868068 0.67257,-0.690026 1.79755,-1.618985 2.49997,-2.064353 0.70242,-0.445368 2.00545,-1.034699 2.89562,-1.309624 0.89017,-0.274925 2.60352,-0.57190599 3.80743,-0.65995599 1.20391,-0.08805 2.54342,-0.05951 2.97668,0.06341 0.51313,0.145592 0.94836,0.53901399 1.24849,1.12857099 0.43471,0.853904 0.45698,3.422508 0.39388,45.4403322 -0.0669,44.535268 -0.0669,44.535268 -0.65186,45.119813 -0.38484,0.384567 -0.90338,0.584548 -1.51568,0.584548 -0.6123,0 -1.13083,-0.199981 -1.51567,-0.58455 C 29.7888,91.90714 29.7888,91.90714 29.72085,48.450806 29.65285,4.9944678 29.65285,4.9944678 28.37365,5.1458698 c -0.70358,0.08327 -1.85461,0.4215 -2.55785,0.751619 -0.70325,0.330118 -1.75746,1.078434 -2.34271,1.662922 -0.58524,0.58449 -1.32775,1.606994 -1.65001,2.272234 -0.32226,0.6652392 -0.69941,1.9020032 -0.83811,2.7483642 -0.15435,0.941865 -0.25277,19.429344 -0.2537,47.655776 -8.4e-4,25.364316 0.0457,46.116935 0.10338,46.116935 0.0577,0 0.70591,-0.40417 1.44048,-0.89816 0.73457,-0.49399 2.01668,-1.17295 2.84914,-1.5088 1.51356,-0.61065 1.51356,-0.61065 44.76792,-0.74185 43.25437,-0.1312 43.25437,-0.1312 43.98239,-0.85874 0.72802,-0.72754 0.72802,-0.72754 0.80343,-47.494541 0.0415,-25.721849 0.004,-47.1639532 -0.0831,-47.6491192 -0.0871,-0.485166 -0.44066,-1.164128 -0.78557,-1.508804 -0.62707,-0.626685 -0.62707,-0.626685 -33.86859,-0.626685 -28.66096,0 -33.34389,-0.0529 -33.98441,-0.383896 -0.40859,-0.211143 -0.81628,-0.575041 -0.906,-0.808663 -0.0897,-0.233622 -0.16311,-0.769351 -0.16311,-1.190509 0,-0.421158 0.22974,-0.995316 0.51052,-1.275907 0.28079,-0.280591 0.90113,-0.58066299 1.37855,-0.66682599 0.47742,-0.08616 15.7564,-0.12227 33.9533,-0.08024 33.08526,0.07642 33.08526,0.07642 34.33182,0.68989399 0.68561,0.337409 1.6631,1.099773 2.17221,1.694144 0.50911,0.59437 1.10023,1.668144 1.31361,2.386165 0.33599,1.13062 0.38776,7.6522362 0.38649,48.6868062 -10e-4,30.894257 -0.0932,47.711231 -0.26501,48.329441 -0.14496,0.52148 -0.59378,1.4395 -0.99739,2.04005 -0.40361,0.60055 -1.15538,1.37815 -1.67059,1.728 -0.5152,0.34986 -1.24734,0.714 -1.62696,0.80921 -0.69021,0.17312 -0.69021,0.17312 -0.69021,4.61391 0,3.288 -0.099,4.67745 -0.38117,5.35244 -0.22432,0.5365 -0.66357,1.01894 -1.06742,1.17238 -0.43796,0.16639 -10.18074,0.26073 -26.9273,0.26073 -26.24105,0 -26.24105,0 -26.24105,3.28001 0,3.28001 0,3.28001 28.58596,3.28001 28.52205,0 28.58751,10e-4 29.27783,0.54385 0.52787,0.41493 0.69187,0.77728 0.69187,1.52866 0,0.69014 -0.18185,1.15554 -0.60773,1.55536 -0.60774,0.57054 -0.60774,0.57054 -29.27783,0.57054 -28.6701,0 -28.6701,0 -28.6701,0.60448 0,0.33247 -0.31275,1.23167 -0.69501,1.99822 -0.48468,0.97196 -1.04031,1.61258 -1.83605,2.11687 -0.62757,0.39772 -1.60365,0.79705 -2.16906,0.8874 -0.72211,0.11539 -1.89762,-0.0616 -3.95026,-0.59471 -2.92223,-0.75898 -2.92223,-0.75898 -5.07901,-0.16902 -1.18623,0.32448 -2.57035,0.65817 -3.07582,0.74153 -0.50547,0.0834 -1.50984,-0.006 -2.23194,-0.19934 z m 4.75453,-4.79204 c 2.73409,-0.71861 2.73409,-0.71861 5.55627,0 1.55219,0.39524 3.083,0.71862 3.40179,0.71862 0.31879,0 0.70194,-0.2284 0.85144,-0.50756 0.16265,-0.30371 0.27182,-2.72394 0.27182,-6.02649 0,-5.51894 0,-5.51894 -10.39537,-5.59327 -10.39537,-0.0743 -10.39537,-0.0743 -10.89713,-0.69379 -0.27597,-0.34071 -0.50176,-0.9684 -0.50176,-1.39486 0,-0.42646 0.11567,-0.99136 0.25704,-1.25533 0.14137,-0.26397 0.63165,-0.61045 1.08951,-0.76995 0.59255,-0.20643 11.49131,-0.29 37.81726,-0.29 36.9848,0 36.9848,0 36.9848,-3.28404 0,-3.28403 0,-3.28403 -40.89706,-3.21441 -40.89705,0.0696 -40.89705,0.0696 -42.13571,0.64147 -0.68126,0.31451 -1.81803,1.11341 -2.52615,1.77532 -0.80106,0.74878 -1.55389,1.79665 -1.99256,2.77347 -0.56275,1.25312 -0.70505,1.96729 -0.70505,3.53859 0,1.57131 0.1423,2.28548 0.70505,3.5386 0.43867,0.97681 1.1915,2.02469 1.99256,2.77346 0.70812,0.66192 1.84489,1.46042 2.52615,1.77445 1.1161,0.51448 1.81023,0.58471 7.01545,0.70978 3.17724,0.0764 5.96757,0.23084 6.20074,0.34331 0.23318,0.11248 0.55812,0.49876 0.7221,0.85841 0.16398,0.35966 0.29815,1.33323 0.29815,2.1635 0,0.83026 0.14179,1.65127 0.3151,1.82445 0.1733,0.17319 0.53928,0.31489 0.81328,0.31489 0.274,0 1.72853,-0.32338 3.23228,-0.71862 z M 73.2512,97.3638 c -0.3582,-0.184604 -0.79957,-0.628518 -0.98081,-0.986475 -0.18124,-0.357957 -0.33127,-1.156377 -0.3334,-1.774268 -0.003,-0.838139 -0.12057,-1.159895 -0.46339,-1.266991 -0.25273,-0.07895 -1.0444,-0.399967 -1.75927,-0.713366 -0.71486,-0.313398 -1.90126,-1.160218 -2.63645,-1.88182 -0.7352,-0.721602 -1.71496,-1.987421 -2.17726,-2.812931 -0.47183,-0.842543 -1.15825,-1.66211 -1.56484,-1.86838 -0.39836,-0.202099 -1.45097,-0.49286 -2.33912,-0.646136 -0.88816,-0.153276 -2.22172,-0.586006 -2.96347,-0.961623 -0.74176,-0.375616 -1.81469,-1.103689 -2.3843,-1.617942 -0.5696,-0.51425 -1.45157,-1.765821 -1.95993,-2.781267 -0.50835,-1.015449 -0.92428,-2.062014 -0.92428,-2.3257 0,-0.345076 -0.31275,-0.558093 -1.11597,-0.760115 -0.61379,-0.154376 -1.70086,-0.542689 -2.41572,-0.862918 -0.71487,-0.320229 -1.90415,-1.172635 -2.64286,-1.894237 -0.7387,-0.721602 -1.68992,-2.020486 -2.11381,-2.886409 -0.7707,-1.574404 -0.7707,-1.574404 -0.7707,-16.667968 0,-15.093559 0,-15.093559 0.86141,-16.842146 0.54909,-1.114589 1.34004,-2.178606 2.18148,-2.934609 0.72603,-0.652312 1.93357,-1.471638 2.68343,-1.82072 0.74985,-0.349085 1.80648,-0.714024 2.34806,-0.810976 0.80056,-0.143318 0.98468,-0.288874 0.98468,-0.778477 0,-0.33121 0.36129,-1.32472 0.80288,-2.207798 0.47509,-0.950092 1.33478,-2.083503 2.10573,-2.776172 0.71657,-0.643815 1.81711,-1.41935 2.44565,-1.723411 0.62854,-0.304061 2.01465,-0.733957 3.08025,-0.955324 1.3784,-0.286348 2.15275,-0.606097 2.6836,-1.108116 0.41038,-0.388096 0.97676,-1.153752 1.25863,-1.701456 0.28187,-0.547705 0.92718,-1.454518 1.43401,-2.01514 0.50684,-0.560622 1.47655,-1.36836 2.15493,-1.794973 0.67837,-0.426614 1.66224,-0.911699 2.18639,-1.077967 0.9233,-0.292892 0.9568,-0.348322 1.07561,-1.780074 0.0992,-1.195949 0.25831,-1.594392 0.83408,-2.089309 0.3913,-0.336348 0.99368,-0.611541 1.33862,-0.611541 0.34494,0 0.94732,0.275193 1.33862,0.611541 0.57414,0.493516 0.73489,0.894017 0.83291,2.075168 0.12146,1.463626 0.12146,1.463626 1.64504,2.018771 0.90785,0.330789 2.07225,1.048103 2.8812,1.774914 0.74668,0.670873 1.69899,1.824252 2.11624,2.563066 0.41725,0.738813 1.08948,1.660055 1.49386,2.047204 0.54435,0.521162 1.25568,0.803418 2.73995,1.08721 1.1026,0.210817 2.50448,0.638084 3.11529,0.949482 0.61081,0.311398 1.68763,1.10558 2.39292,1.76485 0.77897,0.728129 1.59944,1.8626 2.0901,2.889977 0.60639,1.269699 0.84237,2.19615 0.94665,3.716539 0.13528,1.972315 0.11993,2.040156 -0.58732,2.596094 -0.39942,0.313973 -1.05168,0.570858 -1.44946,0.570858 -0.39779,0 -0.98937,-0.215344 -1.31463,-0.478543 -0.43518,-0.352147 -0.65012,-0.907783 -0.81379,-2.103691 -0.12232,-0.893834 -0.4486,-2.065933 -0.72506,-2.604668 -0.27646,-0.538733 -0.78002,-1.231384 -1.11902,-1.539225 -0.339,-0.307838 -0.97586,-0.741002 -1.41525,-0.962581 -0.4394,-0.221582 -1.55692,-0.540234 -2.48338,-0.708118 -0.92646,-0.167884 -2.02795,-0.482739 -2.44775,-0.699679 -0.4198,-0.216939 -1.29146,-0.880955 -1.937,-1.475589 -0.64554,-0.594634 -1.41308,-1.558782 -1.70564,-2.142551 -0.29256,-0.583768 -0.84386,-1.396932 -1.22513,-1.807031 -0.38127,-0.410098 -1.16586,-0.995164 -1.74353,-1.300146 -0.73062,-0.385722 -1.5299,-0.554775 -2.62582,-0.555372 -1.01443,-5.51e-4 -1.90277,0.169422 -2.49452,0.4773 -0.50547,0.262988 -1.2548,0.7894 -1.66518,1.169805 -0.41038,0.380406 -0.98401,1.163968 -1.27473,1.741249 -0.29071,0.577282 -1.0184,1.561189 -1.61708,2.186461 -0.59868,0.625271 -1.5085,1.353888 -2.02182,1.619148 -0.51333,0.265261 -1.68992,0.6194 -2.61467,0.786972 -0.92474,0.167572 -2.04085,0.485969 -2.48024,0.707551 -0.4394,0.221579 -1.07626,0.654743 -1.41526,0.962581 -0.339,0.307841 -0.84256,1.000492 -1.11902,1.539225 -0.27646,0.538735 -0.6008,1.696691 -0.72076,2.573235 -0.11996,0.876545 -0.41093,1.786409 -0.6466,2.021919 -0.26202,0.261842 -1.13498,0.503636 -2.24694,0.622368 -1.00015,0.106791 -2.29156,0.435364 -2.86981,0.730161 -0.57824,0.294794 -1.40055,0.959343 -1.82736,1.476773 -0.4268,0.517431 -0.91088,1.390641 -1.07572,1.940465 -0.20756,0.692281 -0.29972,5.109759 -0.29972,14.365759 0,13.366074 0,13.366074 0.69193,14.753631 0.41093,0.82408 1.10944,1.689801 1.72007,2.131833 0.56548,0.409353 1.61879,0.870859 2.34069,1.025573 0.72189,0.154711 1.70197,0.281293 2.17794,0.281293 0.5339,0 1.04872,0.202414 1.34394,0.528394 0.27533,0.304028 0.57255,1.215506 0.69997,2.146562 0.1218,0.889993 0.50811,2.106986 0.85848,2.704431 0.35037,0.597447 1.08761,1.398189 1.63831,1.779431 0.5625,0.389408 1.80945,0.862979 2.84547,1.080667 1.01431,0.213124 2.13684,0.501085 2.49453,0.639916 0.35768,0.138831 1.13793,0.608584 1.73388,1.043899 0.63375,0.462925 1.56804,1.590254 2.25068,2.715712 0.69148,1.140029 1.58755,2.217874 2.19872,2.644753 0.56738,0.396285 1.56332,0.815573 2.2132,0.931751 0.64989,0.116175 1.71335,0.117986 2.36324,0.004 0.64989,-0.113964 1.65426,-0.538263 2.23194,-0.942888 0.62006,-0.434315 1.50031,-1.483559 2.1488,-2.561352 0.60416,-1.004115 1.48157,-2.146766 1.94979,-2.539223 0.46823,-0.392454 1.22933,-0.892803 1.69132,-1.111881 0.46199,-0.219079 1.71149,-0.581215 2.77667,-0.804747 1.06517,-0.223531 2.37325,-0.694703 2.90684,-1.047047 0.53359,-0.352347 1.27083,-1.153325 1.63831,-1.779954 0.38393,-0.654674 0.76526,-1.848871 0.89643,-2.807342 0.16926,-1.236847 0.38114,-1.791722 0.81965,-2.146562 0.32526,-0.263198 0.92696,-0.478542 1.33711,-0.478542 0.41015,0 1.33637,-0.126583 2.05827,-0.281294 0.72189,-0.154714 1.799861,-0.634073 2.395481,-1.065245 0.69489,-0.503025 1.31035,-1.271996 1.71751,-2.145911 0.634559,-1.361965 0.634559,-1.361965 0.637129,-14.429435 0.002,-10.951865 0.0648,-13.187658 0.38672,-13.809842 0.21129,-0.408306 0.57544,-0.815723 0.80923,-0.905372 0.23378,-0.08965 0.74928,-0.162998 1.14555,-0.162998 0.41676,0 0.96489,0.259958 1.30021,0.616644 0.5797,0.616645 0.5797,0.616645 0.50528,14.760043 -0.0744,14.143408 -0.0744,14.143408 -0.75977,15.586612 -0.37694,0.793762 -1.17962,1.998463 -1.78373,2.67711 -0.69197,0.777349 -1.78735,1.578346 -2.960419,2.164806 -1.02412,0.511997 -2.112031,0.932709 -2.417571,0.934918 -0.30554,0.0021 -0.67945,0.09077 -0.83089,0.196801 -0.15146,0.106031 -0.42788,0.724145 -0.61429,1.373587 -0.1864,0.649442 -0.69811,1.746285 -1.13712,2.43743 -0.43902,0.691143 -1.28513,1.651068 -1.88024,2.133166 -0.59512,0.482096 -1.55759,1.11576 -2.13882,1.40814 -0.58123,0.29238 -1.82193,0.678004 -2.75711,0.856943 -0.93517,0.178939 -2.02033,0.485804 -2.41146,0.681922 -0.4086,0.204875 -1.15702,1.119496 -1.75917,2.149805 -0.57641,0.986273 -1.52131,2.220517 -2.09977,2.742763 -0.57847,0.522248 -1.55927,1.208626 -2.17956,1.525283 -0.62029,0.31666 -1.4232,0.654713 -1.78425,0.751232 -0.57655,0.154129 -0.67654,0.360145 -0.82149,1.692459 -0.10487,0.964013 -0.34416,1.692601 -0.65645,1.998796 -0.27028,0.265007 -0.78683,0.549425 -1.14788,0.632045 -0.36105,0.08262 -0.94953,-7.87e-4 -1.30773,-0.185428 z M 69.92839,73.949022 C 69.04242,73.756473 67.59154,73.305891 66.70421,72.94773 65.81688,72.589568 64.43206,71.900412 63.62684,71.416272 62.82162,70.932135 61.40274,69.842629 60.47379,68.995153 59.54484,68.147674 58.25515,66.712565 57.60781,65.80602 56.96046,64.899475 56.0877,63.401547 55.66834,62.477293 55.24897,61.553039 54.69635,60.036139 54.44028,59.106406 54.11142,57.912375 53.9733,56.452807 53.96991,54.135971 c -0.004,-2.611691 0.11412,-3.696587 0.57879,-5.324503 0.32097,-1.124467 0.9828,-2.83669 1.47074,-3.804936 0.48793,-0.968243 1.43801,-2.492744 2.11128,-3.387778 0.67327,-0.895033 1.58191,-1.928178 2.0192,-2.295881 0.49503,-0.416249 1.11702,-0.668547 1.64819,-0.668547 0.55224,0 1.05447,0.214185 1.42405,0.607314 0.34628,0.368345 0.57094,0.94549 0.57094,1.466752 0,0.653855 -0.29836,1.194359 -1.24727,2.259559 -0.68599,0.770065 -1.63266,2.036841 -2.10371,2.815062 -0.47105,0.778218 -1.08638,2.068668 -1.36739,2.867662 -0.28102,0.798997 -0.64171,2.26699 -0.80154,3.262208 -0.15982,0.995218 -0.21606,2.517969 -0.12496,3.383892 0.0911,0.865922 0.3456,2.223846 0.56556,3.017609 0.21997,0.793762 0.82857,2.261217 1.35246,3.261009 0.52388,0.999794 1.58727,2.502949 2.36309,3.340349 0.77581,0.837399 2.13696,1.996838 3.02476,2.576529 0.8878,0.579693 2.56107,1.377953 3.71838,1.773913 1.79429,0.613902 2.52958,0.719931 4.99258,0.719931 2.463,0 3.19829,-0.106029 4.99258,-0.719931 1.15731,-0.39596 2.83058,-1.19422 3.71838,-1.773913 0.8878,-0.579691 2.27879,-1.771342 3.09108,-2.648112 0.8123,-0.87677 1.87299,-2.380122 2.35711,-3.340785 0.48411,-0.960662 1.0632,-2.362425 1.28685,-3.11503 0.22365,-0.752605 0.48076,-2.169372 0.57134,-3.148374 0.10486,-1.133283 0.0239,-2.563018 -0.22284,-3.935146 -0.22543,-1.253596 -0.77453,-2.955004 -1.31264,-4.067211 -0.5088,-1.051637 -1.49497,-2.615382 -2.1915,-3.474992 -0.71024,-0.876536 -2.14145,-2.157692 -3.25891,-2.917225 -1.09588,-0.744864 -2.77168,-1.61341 -3.724,-1.930104 -0.95232,-0.316694 -2.65915,-0.669261 -3.79296,-0.783484 -1.13381,-0.114221 -2.31,-0.340589 -2.61375,-0.503041 -0.30375,-0.162452 -0.68203,-0.667304 -0.84061,-1.121889 -0.21707,-0.622271 -0.20767,-0.994604 0.038,-1.506666 0.1795,-0.374076 0.62176,-0.834432 0.98281,-1.023012 0.46172,-0.241159 1.2017,-0.292787 2.49452,-0.174037 1.01094,0.09286 2.68123,0.383011 3.71176,0.644784 1.03053,0.261771 2.68485,0.884162 3.67627,1.383089 0.99142,0.498926 2.55178,1.469942 3.46749,2.157813 0.9157,0.687873 2.23798,1.938814 2.93839,2.779871 0.70042,0.84106 1.68568,2.232002 2.18946,3.090987 0.50378,0.858982 1.20646,2.366763 1.5615,3.350619 0.35504,0.983856 0.79411,2.709723 0.97571,3.835259 0.19483,1.207527 0.26685,2.943347 0.17567,4.234372 -0.085,1.203368 -0.34756,2.93245 -0.58352,3.842406 -0.23595,0.909959 -0.77213,2.410676 -1.19149,3.33493 -0.41937,0.924254 -1.29213,2.422182 -1.93947,3.328727 -0.64734,0.906545 -1.93704,2.341654 -2.86599,3.189133 -0.92895,0.847476 -2.34782,1.936982 -3.15304,2.421119 -0.80523,0.48414 -2.18399,1.170854 -3.06393,1.526029 -0.87993,0.355178 -2.38989,0.813096 -3.35547,1.017598 -0.96558,0.204499 -2.87813,0.364482 -4.25012,0.355516 -1.37198,-0.009 -3.2194,-0.173846 -4.10537,-0.366393 z"
       id="path1343" /></g></svg>
